<?xml version="1.0" encoding="UTF-8"?>
<svg version="1.1" viewBox="0 0 1500 1500" width="100%" height="100%" xmlns="http://www.w3.org/2000/svg">
<path transform="translate(0)" d="m0  0h1624v1528h-1624z " fill="#171B2A"/>
<path transform="translate(669,523)" d="m0 0h213l40 1 3 2 1 46v59l-1 24-5 22-7 17-6 10-10 14-4 4-7 8-13 11-12 7-10 5-12 5-21 5-11 1h-25l-12-2-12-3-10-3-13-5-11-6-9-6-12-10-7-8-9-10-9-16-4-8-4-9-3-16-3-12v-108l1-17z" fill="#F7F7F8"/>
<path transform="translate(761,222)" d="m0 0h67l13 2 19 5 14 7 9 6 10 9 11 11 12 18-1 7-2 1-46 1-6 5-1 2v12l7 7 51 1 7 3 1 3v24l-3 4-55 2-7 6-1 10 3 6 1 3 3 1 52 1 6 2 1 4v20l-2 6-3 2-46 1-9 3-5 4-1 3v9l2 5 10 3 50 1 3 3 1 3v40l-2 3-5 1h-248l-6-2-1-2v-42l2-4 3-1h48l7-2 5-5 1-2v-7l-4-6-5-4-51-1-5-2-1-2v-27l2-3 3-1 54-1 6-7 1-8-3-6-4-5-5-1-49-1-4-2-1-3v-25l2-3 4-1h48l7-3 4-4 1-9-2-5-4-5-2-1-45-1-2-1v-9l3-5 10-14 11-11 13-9 8-5 13-6 21-5z" fill="#F7F7F8"/>
<path transform="translate(609,546)" d="m0 0 9 1 6 4 6 9 1 93 2 12 2 6 2 11 7 18 7 14 5 8 4 6v2h2l4 6 12 13 9 9 8 6 10 6 5 4 15 7 11 5 15 5 20 4 20 2 24-1 25-5 20-7 21-10 5-4 11-7 7-6 5-5 9-10h2l2-5 8-9 7-10 6-12 3-7 8-25 4-24 1-86 2-7 6-7 5-3 10-1 6 2 8 7 3 7v95l-1 11-6 24-3 6-3 10-4 9-8 16-8 13-9 12-12 14-15 15-11 9-10 7-6 3-10 7-14 7-11 5-15 5-23 5-11 2-3 2v58l1 27 4 1 81 1 6 3 6 5 3 10-1 9-4 6-5 5-4 1h-217l-7-4-5-6-2-6v-7l4-8 7-7 5-1 83-1 2-1 1-3v-82l-9-3-31-7-18-7-9-4-12-6-13-8-12-8-4-4-10-8-10-9-10-11-4-6-8-10-5-9-6-10-10-20-4-12-3-12-4-14-2-22v-84l2-7 6-8 5-3z" fill="#F7F7F8"/>
<path transform="translate(1249,1133)" d="m0 0 10 1 6 9 5 12 12 24 5 12 8 16 9 19 9 17 7 16 8 15 6 13 6 16 7 14 4 5 1 3v10l-1 3-2 1h-198l-3-2-1-3v-8l4-8 3-4 4-9 16-34 10-18 16-32 10-18 9-19 16-32 6-10 3-7z" fill="#F7F7F8"/>
<path transform="translate(364,1134)" d="m0 0h13l6 9 3 8 4 8 3 7 4 9 13 26 9 17 13 28 10 21 8 16 6 13 4 10 4 9 4 6 2 7-1 9-2 2h-199l-1-2v-14l5-8 2-7 11-22 4-6 8-17 8-15 8-18 8-13 4-10 8-16 9-17 6-12 6-11 8-16z" fill="#F7F7F8"/>
<path transform="translate(881,1133)" d="m0 0h80l12 2 12 4 14 8 11 12 6 9 5 14 1 21-2 13-6 12-7 9-10 8-12 7 1 6 8 16 10 19 8 18 3 4 8 16v6l-3 2h-40l-4-4-9-17-10-22-4-9-15-30-3-8-6-11-5-11h-4l-1 106-3 5-2 1h-35l-3-4-1-166 1-34z" fill="#F7F7F8"/>
<path transform="translate(592,1134)" d="m0 0h36l3 5 1 12 1 115 4 13 10 12v2l9 3 9 4h8l8-2 7-3 5-3 9-9 5-11 1-4 1-131 2-3h37l3 3v131l-2 14-4 12-6 11-6 8-5 5-6 5-13 10-13 5-6 2-16 2-21-1-17-6-12-8-14-12-8-10-5-9-3-10-2-4-2-19v-127z" fill="#F7F7F8"/>
<path transform="translate(369,1220)" d="m0 0 3 1 12 25 13 26 5 11 4 8-2 4-69 1-4-3 3-9 9-17 10-21 7-12 5-10z" fill="#171B2A"/>
<path transform="translate(1249,1222)" d="m0 0h5l24 48 8 20 1 3-4 2h-66l-4-2 2-6 15-30 13-24 4-10z" fill="#171B2A"/>
<path transform="translate(947,1176)" d="m0 0h13l8 3 8 6 2 6v12l-4 6-5 5-7-1-6-11-5-9-7-12 1-4z" fill="#171B2A"/>
</svg>
